<?xml version="1.0" encoding="utf-8"?>
<!-- Generator: Adobe Illustrator 22.0.1, SVG Export Plug-In . SVG Version: 6.00 Build 0)  -->
<svg version="1.1" id="Layer_1" xmlns="http://www.w3.org/2000/svg" xmlns:xlink="http://www.w3.org/1999/xlink" x="0px" y="0px"
	 viewBox="0 0 100 78.3" style="enable-background:new 0 0 100 78.3;" xml:space="preserve">
<style type="text/css">
	.st0{fill:rgba(0,0,0,.15);}
</style>
<path class="st0" d="M5.3,4"/>
<path class="st0" d="M84.9,2.6H15.1C7.5,2.6,1.3,9.5,1.3,17.9v42.4c0,8.4,6.2,15.3,13.8,15.3h69.7c7.6,0,13.8-6.9,13.8-15.3V17.9
	C98.7,9.4,92.5,2.6,84.9,2.6z M15.1,8h69.7c4.6,0,8.4,4.4,8.4,9.9v2.5H6.8v-2.5C6.8,12.4,10.5,8,15.1,8z M84.9,70.1H15.1
	c-4.6,0-8.4-4.4-8.4-9.9V25.9h86.5v34.4C93.2,65.7,89.5,70.1,84.9,70.1z"/>
<circle class="st0" cx="60.1" cy="14.1" r="3.4"/>
<circle class="st0" cx="70.6" cy="14.1" r="3.4"/>
<circle class="st0" cx="81.7" cy="14.1" r="3.4"/>
<polygon class="st0" points="44.8,36.7 41.6,39.9 38.5,36.7 35.9,39.4 39,42.5 35.9,45.6 38.5,48.3 41.6,45.1 44.8,48.3 47.4,45.6 
	44.2,42.5 47.4,39.4 "/>
<polygon class="st0" points="64.1,39.4 61.5,36.7 58.4,39.9 55.2,36.7 52.6,39.4 55.8,42.5 52.6,45.6 55.2,48.3 58.4,45.1 
	61.5,48.3 64.1,45.6 61,42.5 "/>
<rect x="36.7" y="54.8" class="st0" width="26.5" height="3.7"/>
</svg>
