<?xml version="1.0" encoding="utf-8"?>
<!-- Generator: Adobe Illustrator 22.0.1, SVG Export Plug-In . SVG Version: 6.00 Build 0)  -->
<svg version="1.1" id="Layer_1" xmlns="http://www.w3.org/2000/svg" xmlns:xlink="http://www.w3.org/1999/xlink" x="0px" y="0px"
	 viewBox="0 0 60 60" style="enable-background:new 0 0 60 60;" xml:space="preserve">
<style type="text/css">
	.st0{fill:#ffffff;}
</style>
<g>
	<path class="st0" d="M52.6,5.8h-6.4V4c0-1.1-0.9-2-2-2s-2,0.9-2,2v1.8H32V4c0-1.1-0.9-2-2-2s-2,0.9-2,2v1.8H17.8V4c0-1.1-0.9-2-2-2
		s-2,0.9-2,2v1.8H7.4c-4.1,0-7.5,3.4-7.5,7.5v37.2c0,4.1,3.4,7.5,7.5,7.5h45.2c4.1,0,7.5-3.4,7.5-7.5V13.3
		C60.1,9.2,56.7,5.8,52.6,5.8z M56.1,50.5c0,1.9-1.6,3.5-3.5,3.5H7.4c-1.9,0-3.5-1.6-3.5-3.5V25.7h52.2V50.5z M56.1,21.7H3.9v-8.4
		c0-1.9,1.6-3.5,3.5-3.5h6.4v1.8c0,1.1,0.9,2,2,2s2-0.9,2-2V9.8H28v1.8c0,1.1,0.9,2,2,2c1.1,0,2-0.9,2-2V9.8h10.2v1.8
		c0,1.1,0.9,2,2,2s2-0.9,2-2V9.8h6.4c1.9,0,3.5,1.6,3.5,3.5C56.1,13.3,56.1,21.7,56.1,21.7z"/>
</g>
</svg>
