<?xml version="1.0" encoding="utf-8"?>
<!-- Generator: Adobe Illustrator 22.0.1, SVG Export Plug-In . SVG Version: 6.00 Build 0)  -->
<svg version="1.1" id="Layer_1" xmlns="http://www.w3.org/2000/svg" xmlns:xlink="http://www.w3.org/1999/xlink" x="0px" y="0px"
	 viewBox="0 0 100 76" style="enable-background:new 0 0 100 76;" xml:space="preserve">
<title>Artboard 2</title>
<path d="M6.2,74.6h34.5c1,0,1.9-0.8,2-1.8l1.4-17.8h11.9l1.4,17.8c0.1,1,1,1.9,2,1.8h34.5c2.9,0,5.2-2.3,5.2-5.2
	c0-0.7-0.1-1.3-0.4-1.9l0,0L73.8,6.1c-1.1-2.8-3.9-4.6-6.9-4.6H54c-1.1,0-2,0.9-2,2c0,0.1,0,0.1,0,0.2l0.8,11h-5.7l0.8-11
	c0.1-1.1-0.7-2.1-1.8-2.1c-0.1,0-0.1,0-0.2,0H33.1c-3,0-5.8,1.8-6.9,4.6L1.4,67.4c-1.1,2.7,0.2,5.7,2.9,6.7
	C4.9,74.4,5.5,74.5,6.2,74.6L6.2,74.6z M5.1,68.9L29.9,7.6c0.5-1.3,1.8-2.1,3.2-2.1h10.8l-0.8,11c-0.1,1.1,0.7,2.1,1.8,2.1
	c0.1,0,0.1,0,0.2,0h10c1.1,0,2-0.9,2-2c0-0.1,0-0.1,0-0.2l-0.8-11h10.8c1.4,0,2.7,0.8,3.2,2.1l24.8,61.3c0.2,0.6-0.1,1.3-0.7,1.5
	c-0.1,0.1-0.3,0.1-0.4,0.1H61.1l-1.4-17.8c-0.1-1-1-1.9-2-1.8H42.2c-1,0-1.9,0.8-2,1.8l-1.4,17.8H6.2C5.5,70.6,5,70,5,69.4
	C5,69.2,5,69.1,5.1,68.9z M43,45.1h14c1.1,0,2-0.9,2-2c0,0,0-0.1,0-0.1l-1.4-18.7c-0.1-1-1-1.9-2-1.8H44.4c-1,0-1.9,0.8-2,1.8L41,43
	c-0.1,1.1,0.7,2.1,1.8,2.1C42.9,45.1,42.9,45.2,43,45.1L43,45.1z M46.2,26.5h7.5l1.1,14.6h-9.7L46.2,26.5z"/>
</svg>
