<?xml version="1.0" encoding="utf-8"?>
<!-- Generator: Adobe Illustrator 22.0.1, SVG Export Plug-In . SVG Version: 6.00 Build 0)  -->
<svg version="1.1" id="Layer_1" xmlns="http://www.w3.org/2000/svg" xmlns:xlink="http://www.w3.org/1999/xlink" x="0px" y="0px"
	 viewBox="0 0 85.7 84" style="enable-background:new 0 0 85.7 84;" xml:space="preserve">
<path d="M57.9,4.9C53.2,2.9,48.2,2,43,2C22.8,2,5.8,17,3.3,37C3.1,38.7,3,40.3,3,42c0,22.1,18,40,40,40c22.1,0,40-18,40-40
	C83,25.6,73.2,11,57.9,4.9z M43,79C22.6,79,6,62.4,6,42c0-1.5,0.1-3.1,0.3-4.6C8.5,18.9,24.3,5,43,5c4.8,0,9.4,0.9,13.8,2.7
	C70.9,13.3,80,26.8,80,42C80,62.4,63.4,79,43,79z M64.5,40.5h-20V15.7c0-0.8-0.7-1.5-1.5-1.5s-1.5,0.7-1.5,1.5V42
	c0,0.8,0.7,1.5,1.5,1.5h21.5c0.8,0,1.5-0.7,1.5-1.5S65.3,40.5,64.5,40.5z"/>
</svg>
