<?xml version="1.0" encoding="utf-8"?>
<!-- Generator: Adobe Illustrator 22.0.1, SVG Export Plug-In . SVG Version: 6.00 Build 0)  -->
<svg version="1.1"
	 id="Layer_1" xmlns:cc="http://creativecommons.org/ns#" xmlns:dc="http://purl.org/dc/elements/1.1/" xmlns:inkscape="http://www.inkscape.org/namespaces/inkscape" xmlns:rdf="http://www.w3.org/1999/02/22-rdf-syntax-ns#" xmlns:sodipodi="http://sodipodi.sourceforge.net/DTD/sodipodi-0.dtd" xmlns:svg="http://www.w3.org/2000/svg"
	 xmlns="http://www.w3.org/2000/svg" xmlns:xlink="http://www.w3.org/1999/xlink" x="0px" y="0px" viewBox="0 0 444.9 414.2"
	 style="enable-background:new 0 0 444.9 414.2;" xml:space="preserve">
<g transform="translate(-213.367,-396.322)">
	<path class="print" d="M366.6,396.3c-23.8,0-43,19.2-43,43v25.1H548v-25.1h0.1c0-23.7-19.3-43-43-43H366.6L366.6,396.3z M260,480.8
		c-25.8,0-46.6,21-46.6,46.7v149.6c0,25.8,20.8,46.6,46.6,46.6h22.5v-78.1c0-13.5,11.2-24.6,24.6-24.6h257.5
		c13.6,0,24.6,11.2,24.6,24.6v78.1h22.5c25.9,0,46.7-20.8,46.7-46.6V527.5c0-25.7-20.8-46.7-46.7-46.7H260z M534.8,527.1h26.4
		c5.9,0,10.8,4.8,10.8,10.8v26.3c0,6-4.8,10.8-10.8,10.8h-26.4c-5.9,0-10.7-4.8-10.7-10.8v-26.3
		C524.1,531.9,528.9,527.1,534.8,527.1z M307.1,637.5c-4.5,0-8.2,3.6-8.2,8.2v156.2c0,4.5,3.6,8.3,8.2,8.3h257.5
		c4.5,0,8.3-3.7,8.3-8.3V645.7c0-4.6-3.7-8.2-8.3-8.2H307.1L307.1,637.5z M315.3,653.9h241.1v139.8H315.3L315.3,653.9L315.3,653.9z
		 M347.1,681.2c-4.5,0-8.3,3.7-8.3,8.2c0,4.5,3.7,8.2,8.3,8.2h176.5c4.5,0,8.2-3.6,8.2-8.2c0-4.6-3.6-8.2-8.2-8.2L347.1,681.2
		L347.1,681.2z M347.1,716.3c-4.5,0-8.3,3.7-8.3,8.3c0,4.5,3.7,8.2,8.3,8.2h176.5c4.5,0,8.2-3.6,8.2-8.2c0-4.6-3.6-8.3-8.2-8.3
		H347.1L347.1,716.3z M347.1,751.6c-4.5,0-8.3,3.7-8.3,8.3c0,4.5,3.7,8.2,8.3,8.2h176.5c4.5,0,8.2-3.6,8.2-8.2
		c0-4.6-3.6-8.3-8.2-8.3H347.1L347.1,751.6z"/>
</g>
</svg>
