<?xml version="1.0" encoding="utf-8"?>
<!-- Generator: Adobe Illustrator 22.0.1, SVG Export Plug-In . SVG Version: 6.00 Build 0)  -->
<svg version="1.1" id="Layer_1" xmlns="http://www.w3.org/2000/svg" xmlns:xlink="http://www.w3.org/1999/xlink" x="0px" y="0px"
	 viewBox="0 0 164 35" style="enable-background:new 0 0 164 35;" xml:space="preserve" height="45">
<style type="text/css">
	.st0{fill:none;}
	.st1{fill:#F26924;}
</style>
<path class="st0" d="M-1-1h166v36H-1V-1z"/>
<g>
	<g>
		<path class="st1" d="M48.6,7.6c-2-1-4.1-1.4-6.4-1.4c-2.2,0-4.2,0.4-6.1,1.2s-3.5,1.8-5,3.2c-1.4,1.4-2.5,3-3.3,4.8
			s-1.2,3.7-1.2,5.6c0,2.6,0.6,4.8,1.8,6.8c1.2,2,2.9,3.5,5,4.6s4.3,1.6,6.8,1.6c2.1,0,4-0.4,5.8-1.1c1.8-0.7,3.4-1.8,4.8-3.1
			s2.4-2.9,3.2-4.8c0.8-1.9,1.2-3.8,1.2-6c0-2.8-0.6-5.2-1.8-7.1S50.6,8.6,48.6,7.6z M45.6,22.4c-0.5,1.2-1.2,2.1-2.1,2.9
			c-0.9,0.7-1.9,1.1-3.1,1.1c-1.4,0-2.6-0.5-3.4-1.5c-0.9-1-1.3-2.2-1.3-3.7c0-1,0.2-2.1,0.6-3.3c0.4-1.2,1.1-2.2,2-3s2-1.2,3.4-1.2
			s2.5,0.5,3.3,1.4c0.9,0.9,1.3,2.2,1.3,3.8C46.3,20.1,46.1,21.3,45.6,22.4z M162.3,6.8c-0.7-0.1-1.3-0.2-2-0.3
			c-0.7-0.1-1.4-0.1-2-0.2c-0.7-0.1-1.3-0.1-1.8-0.1c-2.7,0-4.1,0.2-6.4,0.6c-2.3,0.4-4.3,0.9-6,1.3l-4,25.3h9.1l3.2-20.4
			c0.4-0.1,2.2-0.4,2.8-0.4c1.3,0,2.4,0.1,3.5,0.3s2,0.4,2.8,0.5l2.5-6.2C163.5,7,163,6.9,162.3,6.8L162.3,6.8z M109.4-0.1
			L94.5,33.4h8.3l15.7-33.5L109.4-0.1z M28.3,6.6H4.1l-0.9,6.2h11.3L0.1,33.4h24.3l0.9-6.4H14.1L28.3,6.6z M96.4,10h-9.1l5.8,23.4
			l5.2-12L96.4,10z M133.4,7.5c-1.7-0.9-3.6-1.3-5.7-1.3c-2.8,0-5.3,0.7-7.5,2.1s-4,3.2-5.2,5.6c-1.3,2.3-1.9,4.9-1.9,7.6
			c0,1.8,0.4,3.7,1.1,5.6c0.8,1.9,2.2,3.5,4.3,4.8c2.1,1.4,5,2,8.6,2c1.7,0,3.1-0.1,4.3-0.4c1.1-0.3,2.6-0.8,4.5-1.5l1.3-6.6
			c-2,0.8-3.7,1.4-5.1,1.8c-1.4,0.4-3,0.6-4.9,0.6c-3.6,0-5.5-1.9-5.5-5.6h17c0.2-1.4,0.4-2.7,0.4-3.9c0-2.7-0.5-4.9-1.6-6.8
			C136.6,9.8,135.2,8.4,133.4,7.5L133.4,7.5z M130.7,17.2v0.4h-8.2c0.6-1.6,1.3-2.9,2-3.9s1.7-1.5,3-1.5c2.1,0,3.1,1.5,3.1,4.5
			C130.7,17,130.7,17.1,130.7,17.2L130.7,17.2z M79.7,7.6c-2-1-4.1-1.4-6.4-1.4c-2.2,0-4.2,0.4-6.1,1.2s-3.5,1.8-5,3.2
			c-1.4,1.4-2.5,3-3.3,4.8s-1.2,3.7-1.2,5.6c0,2.6,0.6,4.8,1.8,6.8s2.9,3.5,5,4.6c2.1,1.1,4.3,1.6,6.8,1.6c2.1,0,4-0.4,5.8-1.1
			c1.8-0.7,3.4-1.8,4.8-3.1s2.4-2.9,3.2-4.8c0.8-1.9,1.2-3.8,1.2-6c0-2.8-0.6-5.2-1.8-7.1C83.3,10,81.7,8.6,79.7,7.6z M76.7,22.4
			c-0.5,1.2-1.2,2.1-2.1,2.9c-0.9,0.7-1.9,1.1-3.1,1.1c-1.4,0-2.6-0.5-3.4-1.5c-0.9-1-1.3-2.2-1.3-3.7c0-1,0.2-2.1,0.6-3.3
			c0.4-1.2,1.1-2.2,2-3s2-1.2,3.5-1.2c1.4,0,2.5,0.5,3.3,1.4c0.9,0.9,1.3,2.2,1.3,3.8C77.4,20.1,77.2,21.3,76.7,22.4z"/>
	</g>
</g>
</svg>
