<svg xmlns="http://www.w3.org/2000/svg" height="70" viewBox="0 0 268.281 88.25">
<defs>
    <style>
      .cls-1 {
        fill: #01589f;
        fill-rule: evenodd;
      }
    </style>
  </defs>
  <path id="Logotype" class="cls-1" d="M242.961,92.716h6.747v27.272h-6.747V92.716Zm26.853,27.271-8.786-13.635v13.635h-6.741V92.716h5.9l8.78,13.79V92.716h6.747v27.271h-5.895Zm27.963-2.693a11.416,11.416,0,0,1-15.6,0c-2.891-2.9-2.773-6.74-2.773-10.864s-0.118-7.973,2.773-10.86a10.025,10.025,0,0,1,7.632-3.084c7.049,0,10.046,4.587,10.707,9.088h-6.778c-0.543-2.076-1.623-3.078-3.929-3.078a3.279,3.279,0,0,0-2.66,1.192c-0.62.81-1.008,1.735-1.008,6.742s0.388,5.972,1.008,6.778a3.259,3.259,0,0,0,2.66,1.157,3.891,3.891,0,0,0,2.994-1.081,4.055,4.055,0,0,0,1.044-2.929v-0.38h-4.038v-5.626h10.745v3.808c0,4.439-.7,7.017-2.775,9.137m-15.9,14.31c-1.767,0-3.142.8-5.028,2.991l0.7-3.025-4.073.727a30.358,30.358,0,0,1-5.548,8.626c-1.371,1.411-2.192,1.717-2.809,1.747a2.966,2.966,0,0,1-1.923-.83,22.433,22.433,0,0,0,1.848-8.067c0-.977,0-2.2-3.291-2.2a9.885,9.885,0,0,0-9.887,9.193c-2.559,2.38-2.9,2.659-3.766,2.659a1.378,1.378,0,0,1-1.3-1.622c0-1.042.293-1.91,1.663-5.691l1.667-4.5-1.635.073c-1.661,2.956-3.029,4.143-5.247,4.466a9.733,9.733,0,0,0,.815-3.17,1.235,1.235,0,0,0-1.41-1.4c-2.766,0-3.545,3.531-3.545,4.431a2.107,2.107,0,0,0,1.553,1.988,24.84,24.84,0,0,1-2.152,2.633c-0.294.249-.406,0.391-0.733,0.679-1.747,1.729-2.7,2.375-3.558,2.375-0.7,0-1.142-.606-1.142-1.656,0-1.3.85-3.85,2.953-10.45l-4.916.976-2.366,7.491c-0.372,1.23-2.667,4.078-4.075,4.078-0.816,0-1.295-.65-1.295-1.7,0-2.414,2.552-9.654,2.96-10.812l-4.809.942a40.679,40.679,0,0,0-2.341,8.118,10.312,10.312,0,0,1-7.683,4.029,5.375,5.375,0,0,1-5.664-5.409,4.955,4.955,0,0,1,4.664-5.224c0.927,0,1.928.176,2.26,0.176,0.663,0,.957-1.69.957-2.266,0-.366-0.334-0.366-0.957-0.366-3.108,0-3.405-2.052-3.405-3.382,0-2.813,1.959-5.441,4.028-5.441,1.523,0,2.185,1.26,2.482,3,0.147,0.926.366,1.326,0.7,1.326,0.556,0,2.218-2.052,2.218-2.736,0-.108-0.365-2.918-5.106-2.918-4.991,0-9.063,2.986-9.063,6.631,0,2.374,1.481,3.924,3.849,4.789a11.267,11.267,0,0,0-5.551,2.407,6.437,6.437,0,0,0-2.3,4.94c0,4.041,3.406,6.7,8.623,6.7,3.8,0,6.672-1.214,9.765-4.089,0,0.006,0,.014,0,0.019,0,2.515,1.189,4.1,3.037,4.1,1.962,0,3.883-1.219,6.624-4.14,0,2.266.885,4.1,2.962,4.1,1.626,0,3.478-1.15,6.88-4.281v-0.008a19.465,19.465,0,0,0,3.7-4.535,9.921,9.921,0,0,0,2.928-.938c-1.888,2.878-2.743,4.968-2.743,6.663a2.875,2.875,0,0,0,2.63,3.134c1.69,0,3.742-1.244,6.924-4.256,0.44,2.6,2.165,4.221,4.581,4.221,2.222,0,4.213-1.257,5.96-3.818a4.238,4.238,0,0,0,2.59.973,5.34,5.34,0,0,0,3.143-1.436v-0.008a20.544,20.544,0,0,0,2.551-2.915c0.337-.4.442-0.546,0.668-0.83-1.52,6.519-2.3,10.559-3.257,16.677l4.587-.788a78.284,78.284,0,0,1,1.663-8.936,3.594,3.594,0,0,0,2.813,1.081c4.369,0,8.731-5.195,8.731-10.379,0-2.95-1.66-4.938-4.108-4.938m-22.123,6.058a6.847,6.847,0,0,0,1.7,4.465c-1.037,1.584-1.883,2.307-2.77,2.307-1.373,0-2.184-1.364-2.184-3.748,0-3.024,1.181-8,5-8a2.032,2.032,0,0,1,.774.108,5.865,5.865,0,0,0-2.516,4.866m17.1,7.855c-0.815,0-1.368-.4-2.072-1.513l1.106-4.579c0.6-2.448.93-3.17,1.67-3.923a2.878,2.878,0,0,1,1.883-.977c1.222,0,2.041,1.227,2.041,3.025,0,2.848-1.853,7.967-4.628,7.967M295.173,144c-2.006,0-3.334-1.226-3.781-3.424,3.035-.9,7.959-2.518,7.959-5.912,0-1.836-1.477-3.064-3.7-3.064-4.371,0-8.554,4.795-8.554,9.768a5.192,5.192,0,0,0,5.475,5.549c2.7,0,4.7-1.045,8.145-4.281v-2.025C298.5,142.747,297.2,144,295.173,144m-0.558-11c0.815,0,1.259.62,1.259,1.7,0,2.271-1.6,3.855-4.63,4.68,0-4.211,2-6.38,3.371-6.38m53.87-65.7a39.75,39.75,0,0,0-35.516,57.709H242.9l-8.568-4.595h-1.893l-3,2.2h-1.807l-4.251-2.474h3.138v-9.792h4.125c6.084,0,9.36-4.308,9.36-8.819s-3.276-8.821-9.36-8.821H219.777v25.336l-4.583-2.666V92.715h-6.626l-6.163,12.1-6.164-12.1h-6.626V117.4l-2.289,1.425-9.494-26.107h-5.2l-9.975,27.259,5.43,0-4.035,3.038h-3.17l-4.686-3.105c3.577-1.026,6.267-3.8,7.042-8.468h-6.859c-0.425,1.542-1.27,2.929-3.5,2.929a3.274,3.274,0,0,1-2.658-1.154c-0.616-.809-1.043-1.775-1.043-6.782s0.427-5.964,1.043-6.78A3.274,3.274,0,0,1,152.87,98.5c2.234,0,3.079,1.383,3.5,2.93h6.859c-1-6.048-5.2-8.942-10.4-8.942A10.2,10.2,0,0,0,145.2,95.57c-2.889,2.887-2.772,6.737-2.772,10.859s-0.117,7.974,2.772,10.865a10.682,10.682,0,0,0,1.076.864l-2.293,2.826h-2.121l-3.872-3.971h-2.685l-13.292-13.73v-3.274h-2.008v4.1l14.475,14.909h2.68l3.875,3.971h3.778l3.929-4.469h2.147l9.33,6.5h4.52l5.028-3.65,6.544,3.65H180.5l10.893-6.357,7.1,3.657h3.535l7.313-5.106h5.018l12.73,7.412h3l3.014-2.206h0.722l8.573,4.594H314.05A39.794,39.794,0,1,0,348.485,67.3M226.516,98.765h3.811a2.777,2.777,0,1,1,0,5.546h-3.811V98.765ZM175.4,103.122l2.31,7.318h-4.776Zm4.522,19.893h-3.041l-6.861-3.853,1.026-3.1h8.436l1.27,3.925H185.2Zm28.529-7.629-7.061,4.923h-2.414l-2.624-1.35V107.011l3.892,6.778h4.311l3.9-6.778v8.375Zm125.111,4.589-6.41-11.412-2.181,2.695v8.717H318V92.02h6.97V102l7.892-9.978h8.362l-9.5,11.384,9.813,16.571h-7.975Zm27.075-11.13c0-5.429-3.311-9.83-9.315-9.83-5.436,0-9.289,3.821-9.289,10.6,0,8.945,5.282,10.6,9.865,10.6a10.083,10.083,0,0,0,8.049-3.273l-3.773-3.774a5.175,5.175,0,0,1-4.276,1.735c-2.356,0-3.664-1.546-3.664-3.243h12.4v-2.806Zm-12.4-1.385a3.671,3.671,0,0,1,.348-1.62,3.123,3.123,0,0,1,5.472,0,3.666,3.666,0,0,1,.345,1.62h-6.165Zm24.039,14.98a7.2,7.2,0,0,1-1.619,2.737A5.981,5.981,0,0,1,366,126.91h-2.393v-5.7h1.35a1.852,1.852,0,0,0,2.114-1.541l0.581-1.734-6.9-18.684h6.629L370.891,110l3.348-10.751h6.63ZM359,127.014H318.015v-2H359v2Z" transform="translate(-120 -67.313)"/>
</svg>
