<?xml version="1.0" standalone="no"?>
<!DOCTYPE svg PUBLIC "-//W3C//DTD SVG 20010904//EN"
 "http://www.w3.org/TR/2001/REC-SVG-20010904/DTD/svg10.dtd">
<svg version="1.0" xmlns="http://www.w3.org/2000/svg"
 width="520.000000pt" height="520.000000pt" viewBox="0 0 520.000000 520.000000"
 preserveAspectRatio="xMidYMid meet">
<metadata>
Created by potrace 1.11, written by Peter Selinger 2001-2013
</metadata>
<g transform="translate(0.000000,520.000000) scale(0.100000,-0.100000)"
fill="#000000" stroke="none">
<path d="M2858 5135 c-45 -42 -100 -57 -192 -54 l-71 2 -56 -55 c-115 -114
-275 -178 -444 -178 l-63 0 -16 -42 c-109 -297 -121 -320 -191 -366 -31 -20
-46 -39 -59 -73 -17 -51 -84 -125 -146 -164 -40 -26 -68 -51 -111 -102 -24
-28 -34 -32 -84 -34 -45 -2 -61 -7 -78 -26 -12 -13 -51 -47 -87 -76 -36 -28
-69 -58 -74 -67 -5 -8 -9 -58 -7 -110 l2 -95 -80 -79 c-101 -99 -118 -134
-126 -256 -4 -54 -13 -105 -21 -117 -9 -14 -35 -28 -74 -39 -40 -11 -64 -24
-75 -40 -9 -14 -76 -97 -150 -185 l-135 -162 0 -81 c1 -105 -5 -139 -35 -233
-24 -71 -31 -105 -34 -158 -1 -11 -15 -28 -32 -37 l-30 -18 2 -121 c3 -127 -4
-146 -43 -133 -13 4 -18 -3 -23 -28 -4 -18 -4 -47 -1 -63 2 -17 5 -38 5 -47 2
-42 93 -110 134 -100 4 1 17 -19 28 -45 33 -76 75 -111 105 -85 5 5 31 17 59
27 27 10 77 34 110 52 125 70 140 73 331 63 54 -3 68 0 120 29 63 36 147 96
205 147 33 28 40 31 100 28 87 -3 245 -13 294 -19 22 -2 69 -6 105 -9 147 -12
208 -18 255 -25 28 -4 98 -6 155 -4 112 4 155 -6 165 -38 8 -23 -2 -72 -22
-114 l-15 -31 -256 -2 c-270 -2 -282 -4 -357 -51 -86 -55 -191 -89 -349 -115
-60 -10 -141 -28 -150 -34 -22 -13 42 -29 102 -26 94 6 180 29 366 99 142 53
208 67 320 67 243 0 361 -47 383 -152 17 -86 25 -765 10 -960 -17 -231 -23
-278 -43 -307 -16 -25 -51 -43 -94 -50 -54 -9 -64 -62 -11 -64 188 -5 197 -8
269 -90 38 -44 89 -61 107 -35 10 12 38 16 146 19 142 4 191 16 168 43 -6 8
-20 14 -29 14 -33 0 -80 51 -114 123 -59 127 -85 256 -86 427 -1 77 2 90 31
144 53 98 48 197 -16 281 -17 24 -25 51 -30 115 -14 155 -9 491 10 655 16 148
18 159 41 215 29 73 79 152 185 293 92 123 149 229 149 279 0 21 64 85 109
107 63 32 106 42 206 46 124 6 181 13 223 26 31 10 34 8 77 -35 24 -25 53 -46
64 -46 10 0 54 25 97 57 96 68 164 101 230 109 33 4 67 18 104 44 30 20 77 48
104 61 69 34 256 201 256 229 0 13 -80 65 -120 78 -35 11 -67 17 -145 28 -56
7 -89 21 -173 73 -102 62 -175 62 -254 0 -54 -43 -91 -39 -124 11 -15 22 -31
40 -37 40 -40 0 80 218 145 262 67 45 86 51 188 57 84 6 99 10 132 35 33 25
42 27 85 20 26 -4 93 -7 148 -7 189 -1 338 33 356 80 10 26 6 221 -7 310 l-7
52 -76 29 c-216 83 -508 164 -633 175 -211 20 -378 138 -474 333 l-45 92 -62
6 c-34 4 -85 6 -114 5 -58 -2 -121 24 -175 72 -56 50 -154 70 -240 50 -36 -9
-39 -7 -95 49 l-58 59 -37 -34z m512 -1273 c0 -4 -6 -17 -14 -28 -12 -17 -12
-32 5 -114 34 -161 34 -165 5 -183 -14 -9 -45 -22 -70 -29 -39 -10 -49 -10
-80 7 -20 11 -36 24 -36 30 1 36 23 164 39 220 15 56 19 59 81 83 62 24 70 25
70 14z m433 -17 c32 -29 32 -30 -41 -135 -47 -67 -87 -155 -77 -170 3 -5 -13
-14 -35 -20 -36 -10 -44 -8 -71 10 -19 14 -28 28 -25 38 3 10 8 34 12 55 7 43
45 120 101 208 20 31 29 36 66 37 32 1 48 -4 70 -23z m-766 -90 c21 -9 41 -21
45 -28 4 -7 8 -46 8 -87 0 -72 -1 -76 -22 -77 -13 0 -68 -4 -123 -9 -105 -8
-153 -9 -160 -2 -2 2 -5 27 -6 56 -3 56 14 81 55 82 11 0 27 6 35 14 19 16
112 66 124 66 4 0 24 -7 44 -15z m-949 -779 c40 -7 45 -12 63 -55 43 -103 77
-141 144 -161 109 -33 152 -66 196 -153 25 -48 37 -59 62 -51 21 6 21 3 3 -41
l-15 -34 -63 5 c-35 2 -74 7 -88 10 -53 13 -80 15 -305 29 -119 7 -225 40
-225 69 0 7 -20 44 -45 80 -25 37 -45 71 -45 76 0 5 -14 11 -31 15 -26 6 -30
10 -25 33 3 15 8 43 11 62 3 19 8 42 11 51 5 17 93 54 148 63 16 3 30 7 32 8
6 6 127 2 172 -6z m927 -177 c9 -10 16 -68 15 -145 0 -119 -38 -177 -126 -190
-25 -3 -47 -5 -49 -2 -15 14 -20 132 -8 173 7 22 5 37 -6 56 -14 25 -13 29 9
63 14 20 36 40 50 44 28 10 105 10 115 1z m-1380 -274 c158 -9 147 -7 328 -74
41 -15 89 -23 161 -26 149 -6 260 -36 295 -78 7 -10 19 -17 25 -17 29 0 58
-48 58 -97 1 -82 -1 -91 -24 -99 -73 -23 -200 12 -344 94 -50 29 -126 55 -194
67 -74 13 -87 14 -165 20 -116 8 -150 14 -192 31 -20 9 -46 18 -56 20 -28 5
-29 7 -34 72 -5 56 9 108 25 98 4 -2 57 -7 117 -11z m6 -259 c210 -14 306 -33
355 -71 42 -32 87 -51 139 -59 22 -4 68 -16 103 -27 54 -18 63 -24 60 -43 -3
-24 29 -23 -343 -12 -121 4 -265 7 -321 8 l-101 0 -1 30 c0 16 -3 68 -7 114
-6 81 -5 85 13 75 10 -5 56 -12 103 -15z"/>
</g>
</svg>
